<svg width="44" height="33" viewBox="0 0 44 33" fill="none" xmlns="http://www.w3.org/2000/svg">
<path fill-rule="evenodd" clip-rule="evenodd" d="M17.2862 32.0666C16.764 32.1188 16.2395 32.145 15.7147 32.145C11.5469 32.145 7.54982 30.4967 4.60274 27.5627C1.65565 24.6287 0 20.6494 0 16.5001C0 12.3508 1.65565 8.37149 4.60274 5.4375C7.54982 2.50352 11.5469 0.855225 15.7147 0.855225C16.2395 0.855225 16.764 0.881398 17.2862 0.933646V5.62711C16.7649 5.56366 16.2398 5.53745 15.7147 5.54869C12.7973 5.54869 9.99929 6.7025 7.93633 8.75629C5.87337 10.8101 4.71442 13.5956 4.71442 16.5001C4.71442 19.4046 5.87337 22.1901 7.93633 24.2439C9.99929 26.2977 12.7973 27.4515 15.7147 27.4515C16.2398 27.4628 16.7649 27.4366 17.2862 27.3731V32.0666Z" fill="white"/>
<path fill-rule="evenodd" clip-rule="evenodd" d="M43.9999 32.0666C43.4778 32.1188 42.9533 32.145 42.4285 32.145C38.2607 32.145 34.2636 30.4967 31.3165 27.5627C28.3694 24.6287 26.7137 20.6494 26.7137 16.5001C26.7137 12.3508 28.3694 8.37149 31.3165 5.4375C34.2636 2.50352 38.2607 0.855225 42.4285 0.855225C42.9533 0.855225 43.4778 0.881398 43.9999 0.933646V5.62711C43.4787 5.56366 42.9535 5.53745 42.4285 5.54869C39.9204 5.54848 37.4875 6.40157 35.5331 7.96655C33.5787 9.53153 32.2202 11.7144 31.6828 14.1534H40.857V18.8468H31.6828C32.2202 21.2858 33.5787 23.4687 35.5331 25.0337C37.4875 26.5986 39.9204 27.4517 42.4285 27.4515C42.9535 27.4628 43.4787 27.4366 43.9999 27.3731V32.0666Z" fill="white"/>
</svg>
