<svg width="31" height="31" viewBox="0 0 31 31" fill="none" xmlns="http://www.w3.org/2000/svg">
<mask id="path-1-outside-1_1:75" maskUnits="userSpaceOnUse" x="0" y="0" width="31" height="32" fill="black">
<rect fill="white" width="31" height="32"/>
<path fill-rule="evenodd" clip-rule="evenodd" d="M16.2071 24.9071L22.5711 18.5431C22.9616 18.1526 22.9616 17.5195 22.5711 17.1289C22.1805 16.7384 21.5474 16.7384 21.1569 17.1289L16.5 21.7858L16.5 1H14.5L14.5 21.7858L9.84315 17.1289C9.45262 16.7384 8.81946 16.7384 8.42893 17.1289C8.03841 17.5195 8.03841 18.1526 8.42893 18.5431L14.7929 24.9071C15.1834 25.2976 15.8166 25.2976 16.2071 24.9071ZM1 26.0001V17.6751H3V26.0001C3 27.1047 3.89543 28.0001 5 28.0001H26C27.1046 28.0001 28 27.1047 28 26.0001V17.6751H30V26.0001C30 28.2093 28.2091 30.0001 26 30.0001H5C2.79086 30.0001 1 28.2093 1 26.0001Z"/>
</mask>
<path fill-rule="evenodd" clip-rule="evenodd" d="M16.2071 24.9071L22.5711 18.5431C22.9616 18.1526 22.9616 17.5195 22.5711 17.1289C22.1805 16.7384 21.5474 16.7384 21.1569 17.1289L16.5 21.7858L16.5 1H14.5L14.5 21.7858L9.84315 17.1289C9.45262 16.7384 8.81946 16.7384 8.42893 17.1289C8.03841 17.5195 8.03841 18.1526 8.42893 18.5431L14.7929 24.9071C15.1834 25.2976 15.8166 25.2976 16.2071 24.9071ZM1 26.0001V17.6751H3V26.0001C3 27.1047 3.89543 28.0001 5 28.0001H26C27.1046 28.0001 28 27.1047 28 26.0001V17.6751H30V26.0001C30 28.2093 28.2091 30.0001 26 30.0001H5C2.79086 30.0001 1 28.2093 1 26.0001Z" fill="white"/>
<path d="M22.5711 17.1289L23.2782 16.4218L23.2782 16.4218L22.5711 17.1289ZM21.1569 17.1289L20.4497 16.4218L20.4497 16.4218L21.1569 17.1289ZM16.5 21.7858H15.5V24.2L17.2071 22.4929L16.5 21.7858ZM16.5 1L17.5 1V0H16.5V1ZM14.5 1V0H13.5V1L14.5 1ZM14.5 21.7858L13.7929 22.4929L15.5 24.2V21.7858H14.5ZM9.84315 17.1289L10.5503 16.4218L10.5503 16.4218L9.84315 17.1289ZM8.42893 18.5431L9.13604 17.836L8.42893 18.5431ZM14.7929 24.9071L14.0858 25.6142L14.7929 24.9071ZM1 17.6751V16.6751H0V17.6751H1ZM3 17.6751H4V16.6751H3V17.6751ZM28 17.6751V16.6751H27V17.6751H28ZM30 17.6751H31V16.6751H30V17.6751ZM21.864 17.836L15.5 24.2L16.9142 25.6142L23.2782 19.2503L21.864 17.836ZM21.864 17.836V17.836L23.2782 19.2503C24.0592 18.4692 24.0592 17.2029 23.2782 16.4218L21.864 17.836ZM21.864 17.836H21.864L23.2782 16.4218C22.4971 15.6408 21.2308 15.6408 20.4497 16.4218L21.864 17.836ZM17.2071 22.4929L21.864 17.836L20.4497 16.4218L15.7929 21.0787L17.2071 22.4929ZM15.5 1L15.5 21.7858H17.5V1L15.5 1ZM14.5 2H16.5V0H14.5V2ZM15.5 21.7858L15.5 1L13.5 1L13.5 21.7858H15.5ZM9.13604 17.836L13.7929 22.4929L15.2071 21.0787L10.5503 16.4218L9.13604 17.836ZM9.13604 17.836H9.13604L10.5503 16.4218C9.7692 15.6408 8.50287 15.6408 7.72183 16.4218L9.13604 17.836ZM9.13604 17.836V17.836L7.72183 16.4218C6.94078 17.2029 6.94078 18.4692 7.72182 19.2503L9.13604 17.836ZM15.5 24.2L9.13604 17.836L7.72182 19.2503L14.0858 25.6142L15.5 24.2ZM15.5 24.2L14.0858 25.6142C14.8668 26.3953 16.1332 26.3953 16.9142 25.6142L15.5 24.2ZM0 17.6751V26.0001H2V17.6751H0ZM3 16.6751H1V18.6751H3V16.6751ZM4 26.0001V17.6751H2V26.0001H4ZM5 27.0001C4.44772 27.0001 4 26.5524 4 26.0001H2C2 27.657 3.34315 29.0001 5 29.0001V27.0001ZM26 27.0001H5V29.0001H26V27.0001ZM27 26.0001C27 26.5524 26.5523 27.0001 26 27.0001V29.0001C27.6569 29.0001 29 27.657 29 26.0001H27ZM27 17.6751V26.0001H29V17.6751H27ZM30 16.6751H28V18.6751H30V16.6751ZM31 26.0001V17.6751H29V26.0001H31ZM26 31.0001C28.7614 31.0001 31 28.7615 31 26.0001H29C29 27.657 27.6569 29.0001 26 29.0001V31.0001ZM5 31.0001H26V29.0001H5V31.0001ZM0 26.0001C0 28.7615 2.23858 31.0001 5 31.0001V29.0001C3.34315 29.0001 2 27.657 2 26.0001H0Z" fill="white" mask="url(#path-1-outside-1_1:75)"/>
</svg>
